<?xml version="1.0" encoding="utf-8"?>
<!-- Generator: Adobe Illustrator 16.0.0, SVG Export Plug-In . SVG Version: 6.00 Build 0)  -->
<!DOCTYPE svg PUBLIC "-//W3C//DTD SVG 1.1//EN" "http://www.w3.org/Graphics/SVG/1.1/DTD/svg11.dtd">
<svg version="1.1" xmlns="http://www.w3.org/2000/svg" xmlns:xlink="http://www.w3.org/1999/xlink" x="0px" y="0px"
	 width="103.143px" height="55.926px" viewBox="0 0 103.143 55.926" enable-background="new 0 0 103.143 55.926"
	 xml:space="preserve">
<g id="red" display="none">
</g>
<g id="blue" display="none">
</g>
<g id="black" display="none">
</g>
<g id="angles" display="none">
</g>
<g id="bw" display="none">
</g>
<g id="revision-2" display="none">
</g>
<g id="revision-3" display="none">
</g>
<g id="revision-4" display="none">
</g>
<g id="revision-5" display="none">
</g>
<g id="revision-6" display="none">
</g>
<g id="revision-7" display="none">
</g>
<g id="revision-8" display="none">
</g>
<g id="revision-9" display="none">
</g>
<g id="revision-10" display="none">
</g>
<g id="revision-10_copy" display="none">
</g>
<g id="revision-10_copy_2">
</g>
<g id="tennett-1" display="none">
</g>
<g id="tennett-2" display="none">
</g>
<g id="tennett-2_copy" display="none">
</g>
<g id="tennett-3" display="none">
</g>
<g id="tennett-4" display="none">
</g>
<g id="simplify" display="none">
</g>
<g id="simplify-2">
	<g>
		
			<polygon fill="none" stroke="#F05150" stroke-width="1.1024" stroke-linecap="round" stroke-linejoin="round" stroke-miterlimit="10" points="
			25.64,22.748 98.588,0.552 102.591,40.885 		"/>
		<path stroke="#000000" stroke-width="0.2205" stroke-linecap="round" stroke-linejoin="round" stroke-miterlimit="10" d="
			M36.596,15.623"/>
		<path stroke="#000000" stroke-width="0.2205" stroke-linecap="round" stroke-linejoin="round" stroke-miterlimit="10" d="
			M36.583,16.385"/>
		<path stroke="#000000" stroke-width="0.2205" stroke-linecap="round" stroke-linejoin="round" stroke-miterlimit="10" d="
			M53.469,5.149c1.311-0.193,1.31,2.133,1.31,2.133s0.62-3.138,3.17-3.061c2.058,0.062,2.219,3.469,2.033,5.433
			c-0.186,1.965-0.426,4.177,0.782,3.942c1.229-0.239,2.187-8.694,2.187-8.694s-0.786,9.705-3.119,10.121
			c-2.952,0.526-2.374-3.109-2.213-5.903c0.162-2.794-0.204-4.369-1.038-4.241c-0.833,0.129-1.758,2.2-1.891,2.81
			c-0.068,0.316-0.241,2.403-0.393,4.337c-0.14,1.792,0.363,4.22-1.312,4.373C50.521,16.623,52.038,5.363,53.469,5.149z"/>
		<path stroke="#000000" stroke-width="0.2205" stroke-linecap="round" stroke-linejoin="round" stroke-miterlimit="10" d="
			M52.552,7.205c0,0-0.894,9.951-3.987,10.485c-2.218,0.383-2.194-2.136-2.194-2.136s-0.598,3.061-2.068,3.305
			c-1.126,0.188-4.012-0.14-3.872-5.344c0.111-4.133,2.135-5.992,3.941-5.987c1.94,0.005,2.31,2.259,2.31,2.259
			s0.128-1.772,1.355-1.704c1.631,0.091,0.789,3.551,0.67,5.406c-0.106,1.662-0.334,3.128,0.629,2.981
			C51.414,16.154,52.552,7.205,52.552,7.205z M46.613,9.976c0,0-0.312-2.137-1.906-2.086c-1.359,0.042-1.94,1.574-2.049,4.6
			c-0.122,3.477,0.416,5.447,1.921,5.284c1.373-0.147,1.524-2.076,1.524-2.076L46.613,9.976z"/>
		<path stroke="#000000" stroke-width="0.2205" stroke-linecap="round" stroke-linejoin="round" stroke-miterlimit="10" d="
			M62.663,6.144c0.301-1.581,1.003-4.161,3.731-4.241c1.445-0.042,2.243,1.808,2.243,1.808s0.242-1.53,1.267-1.461
			c1.013,0.069,0.874,1.769,0.552,4.907c-0.323,3.139-0.236,4.302,1.2,3.841c1.509-0.483,2.114-3.44,2.114-3.44
			s-0.853,3.647-2.836,4.527c-2.357,1.046-2.583-1.509-2.583-1.509s-0.818,2.345-2.283,2.541
			C62.088,13.648,62.292,8.09,62.663,6.144z M68.587,3.914c0,0-0.789-1.865-2.024-1.71c-1.244,0.156-1.845,1.707-1.868,4.989
			c-0.034,4.766,0.959,5.332,1.95,5.148c1.765-0.328,1.509-3.642,1.616-4.78C68.543,4.568,68.408,6.969,68.587,3.914z"/>
		<g>
			<path stroke="#000000" stroke-width="0.2205" stroke-linejoin="round" stroke-miterlimit="10" d="M35.133,17.817
				c0,2.567,1.598,3.341,3.047,2.274c1.344-0.988,2.49-7.022,2.612-9.023l0,0c0,0-0.901,7.534-2.458,7.598
				c-0.862,0.035-0.637-2.187-0.452-4.151c0.113-1.204,0.907-5.134-0.49-5.061c-1.073,0.057-1.743,2.528-1.859,4.525
				C35.501,14.517,35.133,17.817,35.133,17.817z"/>
		</g>
		<g>
			<path stroke="#000000" stroke-width="0.2205" stroke-linejoin="round" stroke-miterlimit="10" d="M29.247,19.364
				c0,2.1,1.077,4.291,3.454,2.948c2.046-1.154,3.024-10.156,3.351-11.108l0,0c-0.008,0.048-1.113,9.778-3.195,9.395
				c-1.132-0.209-0.79-2.56-0.597-4.523c0.19-1.954,0.219-2.253,0.517-5.44c0.334-3.563,1.229-9.422-0.532-9.422
				c-1.628,0-1.787,5.222-2.213,9.214c-0.331,3.104-0.634,5.972-0.661,6.432c-0.03,0.536-0.069,1.094-0.096,1.643L29.247,19.364z"/>
		</g>
		<path stroke="#000000" stroke-width="0.2205" stroke-linecap="round" stroke-linejoin="round" stroke-miterlimit="10" d="
			M10.605,11.976c-5.247-0.159-6.973,6.488-7.221,9.535c-0.099,1.208-0.229,5.459,2.604,5.656c1.808,0.126,3.786-3.896,3.786-3.896
			s-2.249,5.205-4.783,5.228c-1.066,0.009-5.385-0.547-4.832-6.27c0.713-7.384,8.362-11.184,10.66-11.184
			c3.619,0,4.418,2.955,4.634,4.611c0.722,5.531,0.736,23.273-7.31,23.698c-3.272,0.173-3.842-5.36-2.574-8.139
			c2.357-5.168,11.014-4.987,11.014-4.987s-7.797-0.436-9.699,4.987c-1.646,4.69-0.054,7.38,1.269,7.062
			C11.964,37.361,15.269,12.116,10.605,11.976z"/>
		<path stroke="#000000" stroke-width="0.2205" stroke-miterlimit="10" d="M38.108,4.904c-0.138,0.827-1.012,1.569-1.445,1.497
			c-0.434-0.073-1.1-0.688-0.961-1.514c0.139-0.827,0.591-1.724,1.38-1.72C37.521,3.17,38.246,4.078,38.108,4.904z"/>
		<g>
			<path stroke="#000000" stroke-width="0.2205" stroke-linejoin="round" stroke-miterlimit="10" d="M24.163,21.854
				c0,2.567,1.309,3.34,2.757,2.274c1.345-0.988,2.491-7.022,2.613-9.023l0,0c0,0-0.902,7.533-2.459,7.598
				c-0.861,0.035-0.637-2.187-0.451-4.151c0.112-1.205,0.907-5.134-0.491-5.061c-1.072,0.058-1.743,2.527-1.858,4.526
				C24.242,18.554,24.163,21.854,24.163,21.854z"/>
		</g>
		<g>
			<path stroke="#000000" stroke-width="0.2205" stroke-linejoin="round" stroke-miterlimit="10" d="M19.497,23.225
				c0,1.522,0.948,3.246,2.612,2.563c1.833-0.751,2.268-2.659,2.39-4.66l0,0c0,0-0.533,3.605-2.09,3.669
				c-0.863,0.036-1.217-2.621-1.032-4.586c0.113-1.205,0.549-5.061-0.49-5.061c-1.074,0.001-1.309,2.527-1.425,4.525
				C19.431,20.213,19.497,23.225,19.497,23.225z"/>
		</g>
		<path stroke="#000000" stroke-width="0.2205" stroke-linecap="round" stroke-linejoin="round" stroke-miterlimit="10" d="
			M42,32.379c0,0-2.126,9.726-6.697,9.726c-4.119,0-4.769-3.613-4.287-6.79c0.521-3.437,2.727-5.136,5.176-5.136
			c3.586,0,3.277,4.28,2.67,5.587c-1.836,3.95-5.387,1.321-5.387,1.321s3.101,1.11,3.825-1.449c0.496-1.75,0.354-4.117-0.955-4.626
			c-1.289-0.5-2.708,1.307-3.086,4.555c0,0-0.698,5.71,2.423,5.669C39.61,41.185,42,32.379,42,32.379z"/>
		<path stroke="#000000" stroke-width="0.2205" stroke-linecap="round" stroke-linejoin="round" stroke-miterlimit="10" d="
			M75.65,19.609c0,0-2.269,13.127-7.479,13.127c-4.119,0-4.769-3.614-4.288-6.79c0.521-3.438,2.728-5.136,5.176-5.136
			c3.587,0,3.277,4.28,2.67,5.587c-1.836,3.949-5.386,1.321-5.386,1.321s3.1,1.109,3.825-1.45c0.496-1.749,0.354-4.117-0.955-4.625
			c-1.29-0.501-2.71,1.307-3.086,4.554c0,0-0.696,5.807,2.423,5.67C73.43,31.653,75.65,19.609,75.65,19.609z"/>
		<path stroke="#000000" stroke-width="0.2205" stroke-linecap="round" stroke-linejoin="round" stroke-miterlimit="10" d="
			M21.135,50.856c-0.172,1.509-0.378,3.254,1.008,3.316c1.594,0.073,1.909-2.887,2.142-3.779c0.336-1.285,0.255-8.584,0.475-11.684
			c0.57-8.019,4.691-8.018,4.691-8.018s-1.32-0.065-1.717,6.838c-0.26,4.509,1.212,17.213-4.93,17.21
			c-2.587-0.001-3.206-1.328-3.244-1.574C19.372,51.905,21.135,50.856,21.135,50.856z"/>
		<path stroke="#000000" stroke-width="0.2205" stroke-linecap="round" stroke-linejoin="round" stroke-miterlimit="10" d="
			M43.41,28.598c1.31-0.195,1.31,2.132,1.31,2.132s0.62-3.138,3.17-3.061c2.058,0.062,2.218,3.469,2.032,5.433
			c-0.185,1.965-0.425,4.177,0.783,3.941c1.229-0.238,2.331-8.693,2.331-8.693s-0.933,9.704-3.265,10.121
			c-2.951,0.526-2.374-3.109-2.212-5.903s-0.204-4.369-1.038-4.241c-0.833,0.129-1.759,2.2-1.891,2.81
			c-0.069,0.316-0.243,2.403-0.394,4.337c-0.139,1.791,0.364,4.22-1.311,4.372C40.46,40.07,41.976,28.81,43.41,28.598z"/>
		<path stroke="#000000" stroke-width="0.2205" stroke-linecap="round" stroke-linejoin="round" stroke-miterlimit="10" d="
			M54.344,25.245c1.31-0.194,1.31,2.132,1.31,2.132s0.621-3.138,3.171-3.061c2.057,0.062,2.217,3.469,2.032,5.434
			c-0.186,1.964-0.426,4.176,0.782,3.941c1.23-0.238,2.477-8.694,2.477-8.694s-1.077,9.705-3.409,10.121
			c-2.952,0.526-2.375-3.109-2.213-5.903s-0.203-4.369-1.037-4.24c-0.834,0.128-1.759,2.2-1.892,2.81
			c-0.068,0.315-0.242,2.402-0.393,4.337c-0.14,1.791,0.363,4.219-1.312,4.372C51.396,36.718,52.912,25.458,54.344,25.245z"/>
		<g>
			<path stroke="#000000" stroke-width="0.2205" stroke-linejoin="round" stroke-miterlimit="10" d="M74.492,27.004
				c0,2.102,1.077,4.292,3.454,2.949c2.046-1.155,3.024-10.156,3.351-11.109l0,0c-0.008,0.049-1.113,9.779-3.195,9.396
				c-1.132-0.209-0.79-2.56-0.598-4.523c0.191-1.955,0.22-2.254,0.518-5.441c0.333-3.562,1.229-9.421-0.532-9.421
				c-1.628,0-1.787,5.221-2.213,9.214c-0.331,3.104-0.634,5.971-0.661,6.431c-0.03,0.537-0.069,1.095-0.096,1.644L74.492,27.004z"/>
		</g>
		<g>
			<path stroke="#000000" stroke-width="0.2205" stroke-linejoin="round" stroke-miterlimit="10" d="M80.648,25.221
				c0,2.1,1.076,4.291,3.454,2.948c2.046-1.155,3.023-10.155,3.35-11.109l0,0c-0.008,0.049-1.112,9.779-3.195,9.396
				c-1.132-0.209-0.79-2.56-0.597-4.523c0.19-1.954,0.219-2.254,0.517-5.441c0.334-3.562,1.229-9.421-0.532-9.421
				c-1.627,0-1.787,5.221-2.213,9.214c-0.331,3.104-0.634,5.971-0.66,6.432c-0.031,0.536-0.07,1.094-0.096,1.643L80.648,25.221z"/>
		</g>
		<g>
			<path d="M15.982,37.875c-0.191-0.467-0.507-1.582,0.046-2.997c0.807-2.069,3.592-5.07,12.278-7.615
				c6.052-1.773,16.873-4.972,28.566-8.428c9.585-2.833,19.756-5.838,28.365-8.374c6.217-1.832,7.707-5.554,8.035-6.78
				c0.182,0.65,0.423,2.083-0.319,3.684c-1.08,2.328-3.749,4.131-7.934,5.356c-15.587,4.564-44.907,13.296-53.825,15.96
				l-0.109,0.032C25.161,30.483,17.811,32.679,15.982,37.875z"/>
			<path d="M93.264,4.126c0.136,0.728,0.188,1.898-0.408,3.187c-1.064,2.302-3.711,4.085-7.867,5.303
				C69.404,17.18,40.082,25.91,31.164,28.574l-0.109,0.033c-5.843,1.745-13.066,3.903-15.072,8.953
				c-0.167-0.539-0.307-1.481,0.151-2.65c0.801-2.044,3.568-5.011,12.204-7.542c6.052-1.773,16.988-5.006,28.566-8.428
				c9.585-2.832,19.756-5.838,28.365-8.374C91.019,8.872,92.754,5.651,93.264,4.126 M93.25,3.267c0,0-0.555,4.883-8.043,7.088
				c-19.114,5.631-45.92,13.575-56.932,16.802C12.182,31.873,16,38.17,16,38.17c1.663-5.361,9.186-7.579,15.227-9.384
				c9.423-2.815,38.364-11.432,53.824-15.96C96.073,9.599,93.25,3.267,93.25,3.267L93.25,3.267z"/>
		</g>
	</g>
</g>
<g id="hello" display="none">
</g>
<g id="Layer_27" display="none">
</g>
<g id="Layer_27_copy">
</g>
<g id="coming_soon" display="none">
</g>
<g id="mockup">
</g>
</svg>
